<svg width="192" height="193" viewBox="0 0 192 193" fill="none" xmlns="http://www.w3.org/2000/svg">
<g clip-path="url(#clip0)">
<ellipse cx="100.8" cy="108.384" rx="84.16" ry="84.585" fill="#FFE6EB"/>
<mask id="mask0" mask-type="alpha" maskUnits="userSpaceOnUse" x="16" y="23" width="169" height="170">
<ellipse cx="100.8" cy="108.384" rx="84.16" ry="84.585" fill="#FFE6EB"/>
</mask>
<g mask="url(#mask0)">
<path d="M70.2759 87.2257C70.6953 87.1168 71.1303 87.0817 71.5617 87.1219C71.5193 83.8316 72.5795 80.6227 74.5717 78.0113C76.5639 75.4 79.3723 73.5382 82.5449 72.7255C86.3198 71.7365 90.3305 72.2844 93.7057 74.2503C97.081 76.2161 99.5482 79.441 100.571 83.2244C101.063 85.0934 101.181 87.0418 100.918 88.9569C100.656 90.8719 100.018 92.7156 99.0414 94.3813C98.0651 96.0469 96.7698 97.5014 95.2304 98.6606C93.6911 99.8197 91.9384 100.661 90.0736 101.134C86.8867 101.966 83.5152 101.709 80.4899 100.403C77.4647 99.0966 74.9577 96.8162 73.3638 93.9206C73.0059 94.1604 72.6093 94.336 72.1916 94.4396C71.2304 94.6933 70.2083 94.5548 69.3483 94.0541C68.4883 93.5534 67.8602 92.7312 67.6011 91.7668C67.4779 91.2921 67.4495 90.7975 67.5175 90.3117C67.5854 89.8259 67.7485 89.3584 67.9972 88.9362C68.2458 88.514 68.5752 88.1455 68.9663 87.8519C69.3574 87.5584 69.8025 87.3455 70.2759 87.2257Z" fill="#648CFF"/>
<path d="M82.5442 72.7255C86.3191 71.7365 90.3298 72.2844 93.7051 74.2503C97.0803 76.2161 99.5475 79.441 100.571 83.2244C100.721 83.7912 100.836 84.3666 100.917 84.9474C87.2277 87.5423 78.3978 74.6042 78.3564 74.5678C79.6495 73.7404 81.0621 73.1189 82.5442 72.7255Z" fill="black"/>
<path d="M71.557 87.1219C71.5228 84.6143 72.1302 82.1399 73.321 79.9361C74.5119 77.7323 76.2462 75.873 78.3577 74.5366C80.7949 82.8974 77.2836 87.2257 74.6036 89.203C74.315 88.6234 73.8834 88.1279 73.3501 87.7636C72.8167 87.3993 72.1994 87.1783 71.557 87.1219Z" fill="black"/>
<path d="M72.0125 75.2656C72.4536 71.9473 70.1073 68.8942 66.7717 68.4463C63.4362 67.9984 60.3746 70.3253 59.9335 73.6436C59.4924 76.9619 61.8388 80.0149 65.1743 80.4628C68.5098 80.9107 71.5714 78.5838 72.0125 75.2656Z" fill="black"/>
<path d="M96.6503 64.1976C97.0833 60.8833 94.7336 57.8401 91.4021 57.4005C88.0706 56.9608 85.0188 59.2911 84.5858 62.6054C84.1528 65.9197 86.5025 68.9629 89.834 69.4026C93.1655 69.8422 96.2173 67.5119 96.6503 64.1976Z" fill="black"/>
<path d="M170.314 121.932L150.523 115.086C148.822 114.497 147.003 114.333 145.224 114.609C143.445 114.884 141.76 115.591 140.313 116.668C138.867 117.745 137.704 119.16 136.924 120.79C136.144 122.421 135.771 124.218 135.837 126.025L136.148 133.774L125.919 121.3L121.885 115.804C119.883 113.237 117.373 111.115 114.514 109.571C111.656 108.027 108.51 107.094 105.275 106.832L62.0299 105.37C60.8814 105.318 59.7307 105.392 58.5981 105.59C55.9612 106.043 53.4791 107.153 51.3783 108.817C49.2774 110.482 47.6244 112.649 46.5702 115.12L45.4725 113.897L44.15 112.402L33.2661 100.326C31.8332 98.7407 30.003 97.5709 27.9667 96.9391C25.9304 96.3072 23.7626 96.2365 21.6898 96.7342C19.617 97.2319 17.7152 98.2799 16.183 99.7686C14.6507 101.257 13.5443 103.132 12.9793 105.198C9.08463 119.526 4.54854 136.306 3.93359 138.566C2.52907 142.634 2.55729 147.064 4.01353 151.114C5.46977 155.164 8.2657 158.589 11.9335 160.815C15.6014 163.041 19.9186 163.934 24.1629 163.344C28.4072 162.753 32.3211 160.716 35.2498 157.573L48.3291 144.76L37.4252 176.148L131.199 214.196L130.084 171.801C135.963 175.058 142.046 176.34 147.396 173.257C155.535 168.565 168.02 150.774 175.968 138.539C176.886 137.122 177.471 135.513 177.679 133.834C177.886 132.156 177.711 130.452 177.166 128.851C176.621 127.251 175.721 125.796 174.534 124.597C173.347 123.398 171.904 122.487 170.314 121.932Z" fill="#FF0828"/>
<path d="M68.3923 74.2679C67.6715 74.5603 66.9442 74.8394 66.2168 75.1186C65.6316 74.9709 65.0265 74.9193 64.4248 74.9657C56.49 75.4841 46.9087 74.5869 41.6386 81.8175C41.4931 82.0235 41.3543 82.2362 41.2154 82.4821C41.2154 82.4821 34.6031 90.9421 29.6504 97.6411C31.0069 98.3143 32.2232 99.2414 33.2343 100.372L47.9799 116.741C49.4103 114.567 50.3284 112.094 50.6645 109.51C54.0957 107.22 57.3256 104.639 60.3186 101.795C65.2646 97.0629 57.8323 89.4734 52.8995 94.1919C52.3573 94.7169 51.7952 95.2286 51.2265 95.7271C55.9412 89.0414 65.5754 86.9015 72.8358 83.9774C79.2101 81.3789 74.7203 71.7359 68.3923 74.2679Z" fill="#648CFF"/>
<path fill-rule="evenodd" clip-rule="evenodd" d="M68.8701 76.7583C69.1776 76.5604 69.5866 76.6505 69.7835 76.9596C70.8544 78.6405 71.1304 80.8351 70.4888 82.6757C69.8322 84.5591 68.221 86.0411 65.6463 86.2086C65.6461 86.2086 65.6465 86.2086 65.6463 86.2086L57.2889 86.7668C56.8817 86.7937 56.4876 86.812 56.1062 86.8296C55.0009 86.8807 53.9991 86.9271 53.074 87.1667C51.9027 87.4702 50.9315 88.0734 50.2442 89.4405L50.2433 89.4422C49.4934 90.9235 48.8132 92.4611 48.1701 94.0441C48.032 94.3839 47.646 94.5469 47.3079 94.4081C46.9698 94.2694 46.8077 93.8814 46.9457 93.5416C47.5985 91.9349 48.2936 90.3626 49.0642 88.8403C49.9506 87.0778 51.2672 86.2623 52.7439 85.8797C53.8141 85.6024 55.0131 85.5475 56.1552 85.4953C56.5114 85.479 56.862 85.463 57.2015 85.4405C57.2015 85.4405 57.2015 85.4406 57.2015 85.4405L65.5604 84.8823C67.5875 84.7505 68.7534 83.6341 69.2407 82.2362C69.743 80.7955 69.5296 79.0259 68.6698 77.6764C68.4728 77.3673 68.5625 76.9562 68.8701 76.7583Z" fill="black"/>
</g>
<path d="M83.1086 98.1059C82.3732 101.455 81.7595 121.116 81.7595 121.116L103.912 119.191L88.9333 97.2678L83.1086 98.1059Z" fill="#648CFF"/>
<path d="M179.41 72.8927C178.53 72.1984 177.417 71.8739 176.303 71.9873C175.381 72.1059 174.517 72.5041 173.826 73.1288C173.581 73.0766 173.331 73.0532 173.081 73.0593C172.451 73.0808 171.833 73.2354 171.267 73.513C170.701 73.7906 170.199 74.1849 169.795 74.6702C169.44 75.1004 169.177 75.5988 169.021 76.1348C168.865 76.6709 168.82 77.2333 168.888 77.7874C169.064 78.9146 169.632 79.9422 170.491 80.6883L170.652 80.868C170.133 80.8552 169.616 80.9487 169.134 81.1428C168.07 81.5672 167.216 82.3977 166.759 83.4527C166.539 83.9585 166.42 84.503 166.409 85.055C166.398 85.6069 166.496 86.1555 166.697 86.6693C167.445 88.195 168.183 89.7283 168.914 91.2694C169.159 91.7712 169.394 92.2726 169.639 92.7744C167.25 96.7839 164.355 98.9045 162.868 100.246L159.03 103.708C155.297 106.761 153.591 103.146 153.591 103.146C153.074 101.986 152.47 100.867 151.783 99.7993C150.73 98.1545 146.722 94.8453 146.281 94.4648C145.869 94.0833 145.375 93.8027 144.837 93.6448C144.299 93.4869 143.732 93.4561 143.18 93.5548C142.048 93.7026 141.014 94.2773 140.288 95.1625C139.612 96.0448 139.298 97.1542 139.411 98.2618C139.572 99.3944 140.142 100.427 141.014 101.163C141.627 101.704 144.322 103.833 145.274 106.098C146.382 108.723 147.229 114.383 147.347 116.685C147.466 118.988 147.336 121.395 147.331 123.745L147.326 125.362C147.499 126.49 148.068 127.519 148.93 128.263C149.809 128.955 150.919 129.281 152.031 129.173C152.907 129.056 153.732 128.688 154.407 128.114L162.95 131.233L168.902 130.582L184.463 102.946C185.58 101.422 186.292 99.6378 186.531 97.7611C186.637 96.2687 186.614 94.7699 186.462 93.2817L186.159 87.9933C186.095 86.8368 186.046 85.6761 185.963 84.5185C185.832 83.348 185.245 82.2777 184.329 81.5427L184.047 81.288C183.62 80.9132 183.193 80.5383 182.766 80.1538L181.304 78.868L180.984 75.7921C180.849 74.6582 180.285 73.6202 179.41 72.8927Z" fill="#648CFF"/>
<path fill-rule="evenodd" clip-rule="evenodd" d="M181.431 79.6435C181.809 79.6168 182.137 79.9033 182.164 80.2835L182.547 85.8041L181.944 97.243C181.924 97.6235 181.601 97.9159 181.222 97.8959C180.843 97.876 180.553 97.5513 180.573 97.1707L181.171 85.8164L180.794 80.3802C180.767 80.0001 181.053 79.6702 181.431 79.6435Z" fill="black"/>
<path d="M170.477 121.938L150.702 115.121C149.002 114.534 147.185 114.37 145.407 114.645C143.63 114.919 141.946 115.623 140.501 116.696C139.056 117.769 137.894 119.178 137.114 120.802C136.335 122.426 135.962 124.215 136.028 126.016L136.339 133.733L126.118 121.31L122.088 115.836C120.087 113.279 117.579 111.166 114.723 109.628C111.866 108.09 108.723 107.161 105.491 106.9L62.2814 105.444C61.1338 105.392 59.9841 105.465 58.8523 105.662C56.2176 106.114 53.7376 107.219 51.6384 108.877C49.5393 110.535 47.8877 112.693 46.8343 115.154L45.7375 113.936L44.4161 112.447L33.5411 100.42C32.1093 98.8411 30.2807 97.6761 28.246 97.0468C26.2114 96.4175 24.0454 96.347 21.9743 96.8427C19.9031 97.3385 18.0029 98.3822 16.4719 99.8649C14.9409 101.348 13.8354 103.215 13.2709 105.272C9.37938 119.542 4.847 136.255 4.23255 138.506C2.82918 142.558 2.85737 146.969 4.31243 151.003C5.76748 155.037 8.56112 158.448 12.2259 160.665C15.8908 162.882 20.2045 163.771 24.4453 163.183C28.6861 162.595 32.5968 160.566 35.5231 157.436L48.5917 144.674L62.2814 135.308L130.122 177.564L130.28 171.607C136.154 174.85 142.232 176.128 147.577 173.056C155.71 168.383 168.184 150.665 176.126 138.479C177.043 137.067 177.628 135.465 177.836 133.793C178.043 132.121 177.868 130.424 177.324 128.83C176.779 127.236 175.88 125.787 174.694 124.593C173.507 123.399 172.065 122.491 170.477 121.938Z" fill="#FF0828"/>
<path fill-rule="evenodd" clip-rule="evenodd" d="M49.2361 117.87C49.5271 117.654 49.9334 117.722 50.1435 118.021C51.9756 120.631 52.7757 123.858 52.3822 127.051C51.9886 130.245 50.4307 133.165 48.0235 135.222L36.2651 145.249C35.9887 145.484 35.579 145.445 35.3498 145.161C35.1207 144.877 35.159 144.455 35.4353 144.22L47.1927 134.194C47.1928 134.194 47.1926 134.194 47.1927 134.194C49.3463 132.353 50.7404 129.74 51.0925 126.883C51.4446 124.026 50.7287 121.138 49.0895 118.803C48.8794 118.504 48.945 118.086 49.2361 117.87Z" fill="black"/>
<path d="M134.4 36.3722C133.396 36.3722 132.432 36.7732 131.722 37.4869C131.012 38.2006 130.613 39.1686 130.613 40.178V55.4012C130.613 56.4105 131.012 57.3785 131.722 58.0923C132.432 58.806 133.396 59.207 134.4 59.207C135.404 59.207 136.367 58.806 137.077 58.0923C137.788 57.3785 138.187 56.4105 138.187 55.4012V40.178C138.187 39.1686 137.788 38.2006 137.077 37.4869C136.367 36.7732 135.404 36.3722 134.4 36.3722ZM137.884 69.1781C137.801 68.9356 137.686 68.7052 137.543 68.4931L137.088 67.9222C136.556 67.3941 135.88 67.0364 135.145 66.8942C134.411 66.7519 133.651 66.8316 132.961 67.123C132.502 67.3157 132.079 67.5861 131.711 67.9222C131.36 68.2778 131.083 68.6996 130.894 69.1633C130.706 69.627 130.61 70.1235 130.613 70.6243C130.619 71.1217 130.722 71.613 130.916 72.0705C131.086 72.5428 131.358 72.9717 131.711 73.3269C132.064 73.682 132.491 73.9547 132.961 74.1257C133.414 74.327 133.904 74.431 134.4 74.431C134.895 74.431 135.386 74.327 135.839 74.1257C136.309 73.9547 136.735 73.682 137.089 73.3269C137.442 72.9717 137.714 72.5428 137.884 72.0705C138.078 71.613 138.181 71.1217 138.187 70.6243C138.205 70.371 138.205 70.1166 138.187 69.8632C138.121 69.6205 138.019 69.3894 137.884 69.1781ZM134.4 17.3433C126.911 17.3433 119.589 19.5753 113.362 23.7572C107.135 27.939 102.282 33.8829 99.4156 40.837C96.5496 47.7912 95.7997 55.4434 97.2608 62.8259C98.7219 70.2084 102.328 76.9897 107.624 82.3122C112.92 87.6347 119.667 91.2593 127.012 92.7278C134.358 94.1963 141.972 93.4426 148.891 90.5621C155.81 87.6816 161.724 82.8036 165.885 76.545C170.046 70.2864 172.267 62.9283 172.267 55.4012C172.267 50.4033 171.287 45.4544 169.384 40.837C167.481 36.2196 164.692 32.0242 161.176 28.4902C157.659 24.9562 153.485 22.1528 148.891 20.2402C144.297 18.3277 139.373 17.3433 134.4 17.3433ZM134.4 85.8475C128.408 85.8475 122.552 84.0618 117.57 80.7164C112.588 77.3709 108.705 72.6158 106.412 67.0525C104.12 61.4891 103.52 55.3674 104.689 49.4614C105.858 43.5554 108.743 38.1304 112.979 33.8724C117.216 29.6144 122.614 26.7146 128.49 25.5399C134.366 24.3651 140.457 24.968 145.993 27.2724C151.528 29.5768 156.259 33.4792 159.588 38.4861C162.917 43.493 164.693 49.3795 164.693 55.4012C164.693 63.476 161.502 71.2202 155.821 76.93C150.139 82.6398 142.434 85.8475 134.4 85.8475Z" fill="#FF2048"/>
</g>
<defs>
<clipPath id="clip0">
<rect width="192" height="192.97" fill="white"/>
</clipPath>
</defs>
</svg>
