<svg width="0" height="0" class="hidden">
  <symbol viewBox="0 0 24 24" fill="none" xmlns="http://www.w3.org/2000/svg" id="arrows-redo">
    <path d="M19.91 15.51h-4.53a1 1 0 0 0 0 2h2.4A8 8 0 0 1 4 12a1 1 0 1 0-2 0 10 10 0 0 0 16.88 7.23V21a1 1 0 0 0 2 0v-4.5a1 1 0 0 0-.97-.99zM15 12a3 3 0 1 0-5.999 0A3 3 0 0 0 15 12zm-4 0a1 1 0 1 1 2 0 1 1 0 0 1-2 0zm1-10a10 10 0 0 0-6.88 2.77V3a1 1 0 0 0-2 0v4.5a1 1 0 0 0 1 1h4.5a1 1 0 0 0 0-2h-2.4A8 8 0 0 1 20 12a1 1 0 0 0 2 0A10 10 0 0 0 12 2z" fill="currentColor"></path>
  </symbol>
  <symbol viewBox="0 0 24 24" fill="none" xmlns="http://www.w3.org/2000/svg" id="arrows-sync-exclamation">
    <path d="M11.29 15.71A1 1 0 0 0 13 15a1.05 1.05 0 0 0-.29-.71.999.999 0 0 0-1.09-.21 1 1 0 0 0-.33.21A1.05 1.05 0 0 0 11 15a1 1 0 0 0 .29.71zm8.62-.2h-4.53a1 1 0 0 0 0 2h2.4A8 8 0 0 1 4 12a1 1 0 1 0-2 0 10 10 0 0 0 16.88 7.23V21a1 1 0 0 0 2 0v-4.5a1 1 0 0 0-.97-.99zM12 2a10 10 0 0 0-6.88 2.77V3a1 1 0 0 0-2 0v4.5a1 1 0 0 0 1 1h4.5a1 1 0 0 0 0-2h-2.4A8 8 0 0 1 20 12a1 1 0 0 0 2 0A10 10 0 0 0 12 2zm0 11a1 1 0 0 0 1-1V9a1 1 0 0 0-2 0v3a1 1 0 0 0 1 1z" fill="currentColor"></path>
  </symbol>
  <symbol viewBox="0 0 24 24" fill="none" xmlns="http://www.w3.org/2000/svg" id="arrows-sync-slash">
    <path d="M19.88 15.5h-4.5a1 1 0 0 0 0 2h2.4A8 8 0 0 1 12 20a8.079 8.079 0 0 1-3.12-.63l-1.49 1.49A9.83 9.83 0 0 0 12 22a10 10 0 0 0 6.88-2.77V21a1 1 0 0 0 2 0v-4.5a1 1 0 0 0-1-1zm-1.57-8.4l1.43-1.43 2-2a1.005 1.005 0 0 0-.71-1.714 1.004 1.004 0 0 0-.71.294l-2 2A9.89 9.89 0 0 0 12 2a10 10 0 0 0-6.88 2.77V3a1 1 0 0 0-2 0v4.5a1 1 0 0 0 1 1h4.5a1 1 0 0 0 0-2h-2.4a7.93 7.93 0 0 1 10.67-.81l-11.2 11.2A7.93 7.93 0 0 1 4 12a1 1 0 0 0-2 0 9.89 9.89 0 0 0 2.27 6.32l-2 2a1 1 0 0 0 0 1.42.998.998 0 0 0 1.42 0l2-2 1.43-1.43L18.31 7.1zm1.06 1.78A8.08 8.08 0 0 1 20 12a1 1 0 0 0 2 0 9.83 9.83 0 0 0-1.14-4.61l-1.49 1.49z" fill="currentColor"></path>
  </symbol>
  <symbol viewBox="0 0 24 24" fill="none" xmlns="http://www.w3.org/2000/svg" id="arrows-sync">
    <path d="M19.91 15.51h-4.53a1 1 0 0 0 0 2h2.4A8 8 0 0 1 4 12a1 1 0 1 0-2 0 10 10 0 0 0 16.88 7.23V21a1 1 0 0 0 2 0v-4.5a1 1 0 0 0-.97-.99zM12 2a10 10 0 0 0-6.88 2.77V3a1 1 0 0 0-2 0v4.5a1 1 0 0 0 1 1h4.5a1 1 0 0 0 0-2h-2.4A8 8 0 0 1 20 12a1 1 0 0 0 2 0A10 10 0 0 0 12 2z" fill="currentColor"></path>
  </symbol>
  <symbol viewBox="0 0 24 24" fill="none" xmlns="http://www.w3.org/2000/svg" id="arrows-shuffle">
    <path d="M11.29 10.21a1.002 1.002 0 0 0 1.42 0l3-3a1.004 1.004 0 0 0-1.42-1.42L12 8.09l-2.29-2.3a1.004 1.004 0 1 0-1.42 1.42l3 3zm1.42 4.58a1.002 1.002 0 0 0-1.42 0l-3 3a1.004 1.004 0 0 0 1.42 1.42l2.29-2.3 2.29 2.3a1.002 1.002 0 0 0 1.639-.325 1 1 0 0 0-.219-1.095l-3-3z" fill="currentColor"></path>
  </symbol>
  <symbol viewBox="0 0 24 24" fill="none" xmlns="http://www.w3.org/2000/svg" id="arrows-arrow-left">
    <path d="M17 11H9.41l3.3-3.29a1.004 1.004 0 0 0-1.42-1.42l-5 5a1 1 0 0 0-.21.33 1 1 0 0 0 0 .76 1 1 0 0 0 .21.33l5 5a1.002 1.002 0 0 0 1.639-.325 1.002 1.002 0 0 0-.219-1.095L9.41 13H17a1 1 0 0 0 0-2z" fill="currentColor"></path>
  </symbol>
  <symbol viewBox="0 0 24 24" fill="none" xmlns="http://www.w3.org/2000/svg" id="arrows-arrow-up">
    <path d="M17.71 11.29l-5-5a1 1 0 0 0-.33-.21 1 1 0 0 0-.76 0 1 1 0 0 0-.33.21l-5 5a1.004 1.004 0 1 0 1.42 1.42L11 9.41V17a1 1 0 0 0 2 0V9.41l3.29 3.3a1.002 1.002 0 0 0 1.639-.326 1 1 0 0 0-.219-1.094z" fill="currentColor"></path>
  </symbol>
  <symbol viewBox="0 0 24 24" fill="none" xmlns="http://www.w3.org/2000/svg" id="arrows-arrow-down">
    <path d="M17.71 11.29a1.002 1.002 0 0 0-1.42 0L13 14.59V7a1 1 0 0 0-2 0v7.59l-3.29-3.3a1.004 1.004 0 1 0-1.42 1.42l5 5c.095.091.207.162.33.21a.94.94 0 0 0 .76 0 1 1 0 0 0 .33-.21l5-5a1.002 1.002 0 0 0 0-1.42z" fill="currentColor"></path>
  </symbol>
  <symbol viewBox="0 0 24 24" fill="none" xmlns="http://www.w3.org/2000/svg" id="arrows-arrow-right">
    <path d="M17.92 11.62a1 1 0 0 0-.21-.33l-5-5a1.003 1.003 0 1 0-1.42 1.42l3.3 3.29H7a1 1 0 1 0 0 2h7.59l-3.3 3.29a1 1 0 0 0 0 1.42 1.002 1.002 0 0 0 1.42 0l5-5c.091-.095.162-.207.21-.33a1 1 0 0 0 0-.76z" fill="currentColor"></path>
  </symbol>
  <symbol viewBox="0 0 24 24" fill="none" xmlns="http://www.w3.org/2000/svg" id="arrows-angle-left-b">
    <path d="M8.49995 12.8L14.2 18.4C14.6 18.8 15.2 18.8 15.6 18.4C16 18 16 17.4 15.6 17L10.7 12L15.6 7.00005C16 6.60005 16 6.00005 15.6 5.60005C15.4 5.40005 15.2 5.30005 14.9 5.30005C14.6 5.30005 14.4 5.40005 14.2 5.60005L8.49995 11.2C8.09995 11.7 8.09995 12.3 8.49995 12.8C8.49995 12.7 8.49995 12.7 8.49995 12.8Z" fill="currentColor" />
  </symbol>
  <symbol viewBox="0 0 24 24" fill="none" xmlns="http://www.w3.org/2000/svg" id="arrows-angle-up-b">
    <g clip-path="url(#clip0)">
      <path d="M11.2784 8.50272L5.62844 14.1627C5.53471 14.2557 5.46032 14.3663 5.40955 14.4881C5.35878 14.61 5.33264 14.7407 5.33264 14.8727C5.33264 15.0047 5.35878 15.1354 5.40955 15.2573C5.46032 15.3792 5.53471 15.4898 5.62844 15.5827C5.8158 15.769 6.06926 15.8735 6.33344 15.8735C6.59763 15.8735 6.85108 15.769 7.03844 15.5827L12.0384 10.6327L16.9884 15.5827C17.1758 15.769 17.4293 15.8735 17.6934 15.8735C17.9576 15.8735 18.2111 15.769 18.3984 15.5827C18.4929 15.4901 18.5681 15.3797 18.6196 15.2578C18.6711 15.1359 18.6979 15.005 18.6984 14.8727C18.6979 14.7404 18.6711 14.6095 18.6196 14.4877C18.5681 14.3658 18.4929 14.2553 18.3984 14.1627L12.7484 8.50272C12.6548 8.40121 12.5411 8.3202 12.4146 8.2648C12.2881 8.20939 12.1515 8.18078 12.0134 8.18078C11.8753 8.18078 11.7387 8.20939 11.6122 8.2648C11.4857 8.3202 11.3721 8.40121 11.2784 8.50272Z" fill="currentColor" />
    </g>
    <defs>
      <clipPath id="clip0">
        <rect width="24" height="24" fill="white" />
      </clipPath>
    </defs>
  </symbol>
  <symbol viewBox="0 0 24 24" fill="none" xmlns="http://www.w3.org/2000/svg" id="arrows-angle-right-b">
    <path d="M15.54 11.29L9.87998 5.64004C9.78702 5.54631 9.67642 5.47191 9.55456 5.42115C9.4327 5.37038 9.30199 5.34424 9.16998 5.34424C9.03797 5.34424 8.90726 5.37038 8.78541 5.42115C8.66355 5.47191 8.55294 5.54631 8.45998 5.64004C8.27373 5.8274 8.16919 6.08085 8.16919 6.34504C8.16919 6.60922 8.27373 6.86267 8.45998 7.05004L13.41 12.05L8.45998 17C8.27373 17.1874 8.16919 17.4409 8.16919 17.705C8.16919 17.9692 8.27373 18.2227 8.45998 18.41C8.5526 18.5045 8.66304 18.5797 8.78492 18.6312C8.90679 18.6827 9.03767 18.7095 9.16998 18.71C9.30229 18.7095 9.43317 18.6827 9.55505 18.6312C9.67692 18.5797 9.78737 18.5045 9.87998 18.41L15.54 12.76C15.6415 12.6664 15.7225 12.5527 15.7779 12.4262C15.8333 12.2997 15.8619 12.1631 15.8619 12.025C15.8619 11.8869 15.8333 11.7503 15.7779 11.6238C15.7225 11.4973 15.6415 11.3837 15.54 11.29Z" fill="currentColor" />
  </symbol>
  <symbol viewBox="0 0 24 24" fill="none" xmlns="http://www.w3.org/2000/svg" id="arrows-angle-down-b">
    <path d="M12.85 15.55L18.45 9.85003C18.85 9.45002 18.85 8.85002 18.45 8.45002C18.05 8.05002 17.45 8.05002 17.05 8.45002L12.05 13.35L7.04998 8.45002C6.64998 8.05002 6.04998 8.05002 5.64998 8.45003C5.44998 8.65002 5.34998 8.85003 5.34998 9.15003C5.34998 9.45003 5.44998 9.65003 5.64998 9.85003L11.25 15.55C11.75 15.95 12.35 15.95 12.85 15.55C12.75 15.55 12.75 15.55 12.85 15.55Z" fill="currentColor" />
  </symbol>
  <symbol viewBox="0 0 24 24" fill="none" xmlns="http://www.w3.org/2000/svg" id="arrows-arrow-circle-left">
    <path d="M8.29 11.29a1 1 0 0 0-.21.33 1 1 0 0 0 0 .76 1 1 0 0 0 .21.33l3 3a1.004 1.004 0 1 0 1.42-1.42L11.41 13H15a1 1 0 0 0 0-2h-3.59l1.3-1.29a1 1 0 0 0-.325-1.639 1 1 0 0 0-1.095.219l-3 3zM2 12a10 10 0 1 0 20 0 10 10 0 0 0-20 0zm18 0a8 8 0 1 1-16 0 8 8 0 0 1 16 0z" fill="currentColor"></path>
  </symbol>
  <symbol viewBox="0 0 24 24" fill="none" xmlns="http://www.w3.org/2000/svg" id="arrows-arrow-down-left">
    <path d="M17 16H9.41l8.3-8.29a1.004 1.004 0 0 0-1.42-1.42L8 14.59V7a1 1 0 0 0-2 0v10a1 1 0 0 0 .08.38 1 1 0 0 0 .54.54c.12.051.25.079.38.08h10a1 1 0 0 0 0-2z" fill="currentColor"></path>
  </symbol>
  <symbol viewBox="0 0 24 24" fill="none" xmlns="http://www.w3.org/2000/svg" id="arrows-arrow-down-right">
    <path d="M17 6a1 1 0 0 0-1 1v7.59l-8.29-8.3a1.004 1.004 0 1 0-1.42 1.42l8.3 8.29H7a1 1 0 1 0 0 2h10a.995.995 0 0 0 .38-.08 1 1 0 0 0 .54-.54c.051-.12.078-.25.08-.38V7a1 1 0 0 0-1-1z" fill="currentColor"></path>
  </symbol>
  <symbol viewBox="0 0 24 24" fill="none" xmlns="http://www.w3.org/2000/svg" id="arrows-arrow">
    <path d="M9.71 6.29a1 1 0 0 0-1.42 0l-5 5a1 1 0 0 0 0 1.42l5 5a.998.998 0 0 0 1.42 0 .999.999 0 0 0 0-1.42L5.41 12l4.3-4.29a1 1 0 0 0 0-1.42zm11 5l-5-5a1.003 1.003 0 1 0-1.42 1.42l4.3 4.29-4.3 4.29a1.001 1.001 0 0 0 .325 1.639 1 1 0 0 0 1.095-.22l5-5a1 1 0 0 0 0-1.42z" fill="currentColor"></path>
  </symbol>
  <symbol viewBox="0 0 24 24" fill="none" xmlns="http://www.w3.org/2000/svg" id="arrows-angle-down-b">
    <path d="M12.85 15.55L18.45 9.85003C18.85 9.45002 18.85 8.85002 18.45 8.45002C18.05 8.05002 17.45 8.05002 17.05 8.45002L12.05 13.35L7.04998 8.45002C6.64998 8.05002 6.04998 8.05002 5.64998 8.45003C5.44998 8.65002 5.34998 8.85003 5.34998 9.15003C5.34998 9.45003 5.44998 9.65003 5.64998 9.85003L11.25 15.55C11.75 15.95 12.35 15.95 12.85 15.55C12.75 15.55 12.75 15.55 12.85 15.55Z" fill="currentColor" />
  </symbol>
  <symbol viewBox="0 0 24 24" fill="none" xmlns="http://www.w3.org/2000/svg" id="arrows-list-collect">
    <path d="M12.7071 9.70711L16.2929 13.2929C16.9229 13.9229 16.4767 15 15.5858 15L8.41421 15C7.52331 15 7.07714 13.9229 7.70711 13.2929L11.2929 9.70711C11.6834 9.31658 12.3166 9.31658 12.7071 9.70711Z" fill="currentColor"/>
  </symbol>
  <symbol viewBox="0 0 24 24" fill="none" xmlns="http://www.w3.org/2000/svg" id="arrows-list-expand">
    <path d="M11.2929 14.2929L7.70711 10.7071C7.07714 10.0771 7.52331 9 8.41421 9H15.5858C16.4767 9 16.9229 10.0771 16.2929 10.7071L12.7071 14.2929C12.3166 14.6834 11.6834 14.6834 11.2929 14.2929Z" fill="currentColor"/>
  </symbol>
</svg>