<svg width="0" height="0" class="hidden">
  <symbol viewBox="0 0 24 24" fill="none" xmlns="http://www.w3.org/2000/svg" id="security-unlock-alt">
    <path d="M12 13a1 1 0 0 0-1 1v3a1 1 0 0 0 2 0v-3a1 1 0 0 0-1-1zm5-4H9V7a3 3 0 0 1 5.12-2.13c.376.384.645.86.78 1.38a1 1 0 1 0 1.94-.5 5.09 5.09 0 0 0-1.31-2.29A5 5 0 0 0 7 7v2a3 3 0 0 0-3 3v7a3 3 0 0 0 3 3h10a3 3 0 0 0 3-3v-7a3 3 0 0 0-3-3zm1 10a1 1 0 0 1-1 1H7a1 1 0 0 1-1-1v-7a1 1 0 0 1 1-1h10a1 1 0 0 1 1 1v7z" fill="currentColor"></path>
  </symbol>
  <symbol viewBox="0 0 24 24" fill="none" xmlns="http://www.w3.org/2000/svg" id="security-unlock">
    <path d="M17 9H9V7a3 3 0 0 1 5.12-2.13c.376.384.645.86.78 1.38a1 1 0 1 0 1.94-.5 5.09 5.09 0 0 0-1.31-2.29A5 5 0 0 0 7 7v2a3 3 0 0 0-3 3v7a3 3 0 0 0 3 3h10a3 3 0 0 0 3-3v-7a3 3 0 0 0-3-3zm1 10a1 1 0 0 1-1 1H7a1 1 0 0 1-1-1v-7a1 1 0 0 1 1-1h10a1 1 0 0 1 1 1v7z" fill="currentColor"></path>
  </symbol>
  <symbol viewBox="0 0 24 24" fill="none" xmlns="http://www.w3.org/2000/svg" id="security-padlock">
    <path d="M12 13C11.6955 12.9964 11.3973 13.0862 11.1454 13.2573C10.8936 13.4284 10.7001 13.6725 10.5912 13.9568C10.4823 14.2411 10.4631 14.552 10.5361 14.8476C10.6092 15.1431 10.7711 15.4092 11 15.61V17C11 17.2652 11.1054 17.5196 11.2929 17.7071C11.4804 17.8946 11.7348 18 12 18C12.2652 18 12.5196 17.8946 12.7071 17.7071C12.8946 17.5196 13 17.2652 13 17V15.61C13.2289 15.4092 13.3908 15.1431 13.4639 14.8476C13.5369 14.552 13.5177 14.2411 13.4088 13.9568C13.2999 13.6725 13.1064 13.4284 12.8546 13.2573C12.6027 13.0862 12.3045 12.9964 12 13ZM17 9V7C17 5.67392 16.4732 4.40215 15.5355 3.46447C14.5979 2.52678 13.3261 2 12 2C10.6739 2 9.40215 2.52678 8.46447 3.46447C7.52678 4.40215 7 5.67392 7 7V9C6.20435 9 5.44129 9.31607 4.87868 9.87868C4.31607 10.4413 4 11.2044 4 12V19C4 19.7956 4.31607 20.5587 4.87868 21.1213C5.44129 21.6839 6.20435 22 7 22H17C17.7956 22 18.5587 21.6839 19.1213 21.1213C19.6839 20.5587 20 19.7956 20 19V12C20 11.2044 19.6839 10.4413 19.1213 9.87868C18.5587 9.31607 17.7956 9 17 9ZM9 7C9 6.20435 9.31607 5.44129 9.87868 4.87868C10.4413 4.31607 11.2044 4 12 4C12.7956 4 13.5587 4.31607 14.1213 4.87868C14.6839 5.44129 15 6.20435 15 7V9H9V7ZM18 19C18 19.2652 17.8946 19.5196 17.7071 19.7071C17.5196 19.8946 17.2652 20 17 20H7C6.73478 20 6.48043 19.8946 6.29289 19.7071C6.10536 19.5196 6 19.2652 6 19V12C6 11.7348 6.10536 11.4804 6.29289 11.2929C6.48043 11.1054 6.73478 11 7 11H17C17.2652 11 17.5196 11.1054 17.7071 11.2929C17.8946 11.4804 18 11.7348 18 12V19Z" fill="currentColor" />
  </symbol>
  <symbol viewBox="0 0 24 24" fill="none" xmlns="http://www.w3.org/2000/svg" id="security-lock-open-alt">
    <path d="M12 13C11.6955 12.9965 11.3973 13.0863 11.1454 13.2573C10.8936 13.4284 10.7001 13.6725 10.5912 13.9568C10.4823 14.2412 10.4631 14.552 10.5361 14.8476C10.6092 15.1432 10.7711 15.4093 11 15.61V17C11 17.2653 11.1054 17.5196 11.2929 17.7071C11.4804 17.8947 11.7348 18 12 18C12.2652 18 12.5196 17.8947 12.7071 17.7071C12.8946 17.5196 13 17.2653 13 17V15.61C13.2289 15.4093 13.3908 15.1432 13.4639 14.8476C13.5369 14.552 13.5177 14.2412 13.4088 13.9568C13.2999 13.6725 13.1064 13.4284 12.8546 13.2573C12.6027 13.0863 12.3045 12.9965 12 13ZM17 9.00004H9V7.00004C8.99854 6.40623 9.17334 5.82534 9.50226 5.33095C9.83118 4.83655 10.2994 4.45089 10.8477 4.2228C11.3959 3.99472 11.9996 3.93447 12.5821 4.04969C13.1646 4.16491 13.6999 4.45041 14.12 4.87004C14.4959 5.25411 14.7649 5.72987 14.9 6.25004C14.9328 6.37742 14.9904 6.49709 15.0695 6.60221C15.1486 6.70734 15.2476 6.79585 15.3609 6.86271C15.4742 6.92957 15.5995 6.97346 15.7298 6.99188C15.86 7.01029 15.9926 7.00287 16.12 6.97004C16.2474 6.93721 16.3671 6.87961 16.4722 6.80053C16.5773 6.72146 16.6658 6.62245 16.7327 6.50916C16.7995 6.39587 16.8434 6.27052 16.8618 6.14028C16.8802 6.01003 16.8728 5.87742 16.84 5.75004C16.6122 4.88484 16.1603 4.09498 15.53 3.46004C14.8302 2.76241 13.9393 2.28778 12.97 2.09609C12.0006 1.90439 10.9961 2.00423 10.0835 2.383C9.17078 2.76176 8.3908 3.40247 7.84201 4.22422C7.29321 5.04596 7.00021 6.01189 7 7.00004V9.00004C6.20435 9.00004 5.44129 9.31611 4.87868 9.87872C4.31607 10.4413 4 11.2044 4 12V19C4 19.7957 4.31607 20.5588 4.87868 21.1214C5.44129 21.684 6.20435 22 7 22H17C17.7956 22 18.5587 21.684 19.1213 21.1214C19.6839 20.5588 20 19.7957 20 19V12C20 11.2044 19.6839 10.4413 19.1213 9.87872C18.5587 9.31611 17.7956 9.00004 17 9.00004ZM18 19C18 19.2653 17.8946 19.5196 17.7071 19.7071C17.5196 19.8947 17.2652 20 17 20H7C6.73478 20 6.48043 19.8947 6.29289 19.7071C6.10536 19.5196 6 19.2653 6 19V12C6 11.7348 6.10536 11.4805 6.29289 11.2929C6.48043 11.1054 6.73478 11 7 11H17C17.2652 11 17.5196 11.1054 17.7071 11.2929C17.8946 11.4805 18 11.7348 18 12V19Z" fill="currentColor" />
  </symbol>
  <symbol viewBox="0 0 24 24" fill="none" xmlns="http://www.w3.org/2000/svg" id="security-lock-access">
    <path d="M21 2h-6a1 1 0 1 0 0 2h5v5a1 1 0 0 0 2 0V3a1 1 0 0 0-1-1zm0 12a1 1 0 0 0-1 1v5h-5a1 1 0 0 0 0 2h6a1 1 0 0 0 1-1v-6a1 1 0 0 0-1-1zm-9-8a3 3 0 0 0-3 3v1a2 2 0 0 0-2 2v4a2 2 0 0 0 2 2h6a2 2 0 0 0 2-2v-4a2 2 0 0 0-2-2V9a3 3 0 0 0-3-3zm-1 3a1 1 0 0 1 2 0v1h-2V9zm4 7H9v-4h6v4zM3 10a1 1 0 0 0 1-1V4h5a1 1 0 0 0 0-2H3a1 1 0 0 0-1 1v6a1 1 0 0 0 1 1zm6 10H4v-5a1 1 0 1 0-2 0v6a1 1 0 0 0 1 1h6a1 1 0 0 0 0-2z" fill="currentColor"></path>
  </symbol>
  <symbol viewBox="0 0 24 24" fill="none" xmlns="http://www.w3.org/2000/svg" id="security-lock-alt">
    <path d="M12 13a1 1 0 0 0-1 1v3a1 1 0 0 0 2 0v-3a1 1 0 0 0-1-1zm5-4V7A5 5 0 0 0 7 7v2a3 3 0 0 0-3 3v7a3 3 0 0 0 3 3h10a3 3 0 0 0 3-3v-7a3 3 0 0 0-3-3zM9 7a3 3 0 1 1 6 0v2H9V7zm9 12a1 1 0 0 1-1 1H7a1 1 0 0 1-1-1v-7a1 1 0 0 1 1-1h10a1 1 0 0 1 1 1v7z" fill="currentColor"></path>
  </symbol>
  <symbol viewBox="0 0 24 24" fill="none" xmlns="http://www.w3.org/2000/svg" id="security-lock-slash">
    <path d="M10.84 5.38A2 2 0 0 1 14 7v3a1 1 0 0 0 1 1h1a1 1 0 0 1 1 1v.34a1 1 0 0 0 2 0V12a3 3 0 0 0-3-3V7a4 4 0 0 0-1.17-2.83 4.06 4.06 0 0 0-5.19-.39 1 1 0 0 0 1.2 1.6zm10.87 14.91l-18-18a1.004 1.004 0 1 0-1.42 1.42L7.62 9A3 3 0 0 0 5 12v6a3 3 0 0 0 3 3h8a3 3 0 0 0 2.39-1.2l1.9 1.91a1.002 1.002 0 0 0 1.639-.325 1 1 0 0 0-.219-1.095zM16 19H8a1 1 0 0 1-1-1v-6a1 1 0 0 1 1-1h1.59l2.07 2.07A1 1 0 0 0 11 14v2a1 1 0 0 0 2 0v-1.59l3.93 3.93A1 1 0 0 1 16 19z" fill="currentColor"></path>
  </symbol>
  <symbol viewBox="0 0 24 24" fill="none" xmlns="http://www.w3.org/2000/svg" id="security-keyhole-circle">
    <path d="M12 8a2 2 0 0 0-2 2 2 2 0 0 0 1 1.72V15a1 1 0 0 0 2 0v-3.28A2 2 0 0 0 14 10a2 2 0 0 0-2-2zm0-6a10 10 0 1 0 0 20 10 10 0 0 0 0-20zm0 18a8 8 0 1 1 0-16.001A8 8 0 0 1 12 20z" fill="currentColor"></path>
  </symbol>
  <symbol viewBox="0 0 24 24" fill="none" xmlns="http://www.w3.org/2000/svg" id="security-keyhole-square-full">
    <path d="M11 11.72V15a1 1 0 0 0 2 0v-3.28A2 2 0 0 0 14 10a2 2 0 1 0-4 0 2 2 0 0 0 1 1.72zM21 2H3a1 1 0 0 0-1 1v18a1 1 0 0 0 1 1h18a1 1 0 0 0 1-1V3a1 1 0 0 0-1-1zm-1 18H4V4h16v16z" fill="currentColor"></path>
  </symbol>
  <symbol viewBox="0 0 24 24" fill="none" xmlns="http://www.w3.org/2000/svg" id="security-keyhole-square">
    <path d="M19 2H5C4.20435 2 3.44129 2.31607 2.87868 2.87868C2.31607 3.44129 2 4.20435 2 5V19C2 19.7956 2.31607 20.5587 2.87868 21.1213C3.44129 21.6839 4.20435 22 5 22H19C19.7956 22 20.5587 21.6839 21.1213 21.1213C21.6839 20.5587 22 19.7956 22 19V5C22 4.20435 21.6839 3.44129 21.1213 2.87868C20.5587 2.31607 19.7956 2 19 2ZM20 19C20 19.2652 19.8946 19.5196 19.7071 19.7071C19.5196 19.8946 19.2652 20 19 20H5C4.73478 20 4.48043 19.8946 4.29289 19.7071C4.10536 19.5196 4 19.2652 4 19V5C4 4.73478 4.10536 4.48043 4.29289 4.29289C4.48043 4.10536 4.73478 4 5 4H19C19.2652 4 19.5196 4.10536 19.7071 4.29289C19.8946 4.48043 20 4.73478 20 5V19ZM12 8C11.4696 8 10.9609 8.21071 10.5858 8.58579C10.2107 8.96086 10 9.46957 10 10C10.0021 10.349 10.0955 10.6914 10.2709 10.9932C10.4464 11.2949 10.6977 11.5455 11 11.72V15C11 15.2652 11.1054 15.5196 11.2929 15.7071C11.4804 15.8946 11.7348 16 12 16C12.2652 16 12.5196 15.8946 12.7071 15.7071C12.8946 15.5196 13 15.2652 13 15V11.72C13.3023 11.5455 13.5536 11.2949 13.7291 10.9932C13.9045 10.6914 13.9979 10.349 14 10C14 9.46957 13.7893 8.96086 13.4142 8.58579C13.0391 8.21071 12.5304 8 12 8Z" fill="currentColor" />
  </symbol>
  <symbol viewBox="0 0 24 24" fill="none" xmlns="http://www.w3.org/2000/svg" id="security-key-skeleton">
    <path d="M21 4.41l.71-.7a1.004 1.004 0 0 0-1.42-1.42l-1.4 1.41-2.83 2.83-6.31 6.3a5 5 0 1 0 1.42 1.42l5.59-5.6 2.12 2.13a1 1 0 1 0 1.41-1.42l-2.12-2.12 1.42-1.41.7.7a1.001 1.001 0 0 0 1.42-1.41L21 4.41zM7 20a3 3 0 1 1 0-6 3 3 0 0 1 0 6z" fill="currentColor"></path>
  </symbol>
  <symbol viewBox="0 0 24 24" fill="none" xmlns="http://www.w3.org/2000/svg" id="security-shield-check">
    <path d="M19.63 3.65a1 1 0 0 0-.84-.2 8 8 0 0 1-6.22-1.27 1 1 0 0 0-1.14 0 8 8 0 0 1-6.22 1.27A1 1 0 0 0 4 4.43v7.45a9 9 0 0 0 3.77 7.33l3.65 2.6a1 1 0 0 0 1.16 0l3.65-2.6A9 9 0 0 0 20 11.88V4.43a1 1 0 0 0-.37-.78zM18 11.88a6.998 6.998 0 0 1-2.93 5.7L12 19.77l-3.07-2.19A6.999 6.999 0 0 1 6 11.88v-6.3a10 10 0 0 0 6-1.39 10 10 0 0 0 6 1.39v6.3zm-4.46-2.29l-2.69 2.7-.89-.9a1.004 1.004 0 0 0-1.42 1.42l1.6 1.6a1.002 1.002 0 0 0 1.42 0L15 11a1.004 1.004 0 1 0-1.42-1.42l-.04.01z" fill="currentColor"></path>
  </symbol>
  <symbol viewBox="0 0 24 24" fill="none" xmlns="http://www.w3.org/2000/svg" id="security-shield-exclamation">
    <path d="M12.92 15a.561.561 0 0 0-.09-.17l-.12-.15a1.002 1.002 0 0 0-1.42 0 .61.61 0 0 0-.12.15.561.561 0 0 0-.09.17.697.697 0 0 0-.06.19 1.23 1.23 0 0 0 0 .19.88.88 0 0 0 .08.39 1 1 0 0 0 1.3.54c.121-.054.233-.128.33-.22a1 1 0 0 0 .21-.32.986.986 0 0 0 .08-.39 1.23 1.23 0 0 0 0-.19.7.7 0 0 0-.1-.19zM12 7.36a1 1 0 0 0-1 1v3a1 1 0 0 0 2 0v-3a1 1 0 0 0-1-1zm7.63-3.71a1 1 0 0 0-.84-.2 8 8 0 0 1-6.22-1.27 1 1 0 0 0-1.14 0 8 8 0 0 1-6.22 1.27A1 1 0 0 0 4 4.43v7.45a9 9 0 0 0 3.77 7.33l3.65 2.6a1 1 0 0 0 1.16 0l3.65-2.6A9 9 0 0 0 20 11.88V4.43a1 1 0 0 0-.37-.78zM18 11.88a6.998 6.998 0 0 1-2.93 5.7L12 19.77l-3.07-2.19A6.999 6.999 0 0 1 6 11.88v-6.3a10 10 0 0 0 6-1.39 10 10 0 0 0 6 1.39v6.3z" fill="currentColor"></path>
  </symbol>
  <symbol viewBox="0 0 24 24" fill="none" xmlns="http://www.w3.org/2000/svg" id="security-shield-question">
    <path d="M11.29 14.66a1 1 0 0 0-.21 1.09 1 1 0 0 0 1.92-.39 1 1 0 0 0-1.71-.7zm8.34-11a1 1 0 0 0-.84-.2 8 8 0 0 1-6.22-1.27 1 1 0 0 0-1.14 0 8 8 0 0 1-6.22 1.26A1 1 0 0 0 4 4.43v7.45a9 9 0 0 0 3.77 7.33l3.65 2.6a1 1 0 0 0 1.16 0l3.65-2.6A9.001 9.001 0 0 0 20 11.88V4.43a1 1 0 0 0-.37-.78v.01zM18 11.88a7 7 0 0 1-2.93 5.7L12 19.77l-3.07-2.19A7 7 0 0 1 6 11.88v-6.3a10 10 0 0 0 6-1.39 10 10 0 0 0 6 1.39v6.3zm-6-4.52a3 3 0 0 0-2.6 1.5 1 1 0 0 0 1.73 1 1 1 0 1 1 .87 1.5 1 1 0 1 0 0 2 3 3 0 0 0 0-6z" fill="currentColor"></path>
  </symbol>
  <symbol viewBox="0 0 24 24" fill="none" xmlns="http://www.w3.org/2000/svg" id="security-shield-slash">
    <path d="M21.71 20.29l-16-16-2-2a1.004 1.004 0 1 0-1.42 1.42L4 5.41v6.47a9 9 0 0 0 3.77 7.32l3.65 2.61a1 1 0 0 0 1.16 0l3.65-2.61c.302-.213.59-.447.86-.7l3.2 3.21a1.002 1.002 0 0 0 1.639-.325 1 1 0 0 0-.219-1.095zm-6.64-2.71L12 19.77l-3.07-2.19A7 7 0 0 1 6 11.88V7.41l9.67 9.68c-.19.17-.39.33-.6.49zm-5-12.51A10.15 10.15 0 0 0 12 4.19a9.82 9.82 0 0 0 6 1.39v6.3c0 .396-.033.79-.1 1.18a1 1 0 0 0 .83 1.15h.16a1 1 0 0 0 1-.84c.078-.496.119-.997.12-1.5V4.43a1.001 1.001 0 0 0-.37-.77 1 1 0 0 0-.83-.21 7.89 7.89 0 0 1-6.23-1.27 1 1 0 0 0-1.14 0 8.001 8.001 0 0 1-2 1 1.002 1.002 0 1 0 .64 1.9l-.01-.01z" fill="currentColor"></path>
  </symbol>
  <symbol viewBox="0 0 24 24" fill="none" xmlns="http://www.w3.org/2000/svg" id="security-shield">
    <path d="M19.63 3.65a1 1 0 0 0-.84-.2 8 8 0 0 1-6.22-1.27 1 1 0 0 0-1.14 0 8 8 0 0 1-6.22 1.27A1 1 0 0 0 4 4.43v7.45a9 9 0 0 0 3.77 7.33l3.65 2.6a1 1 0 0 0 1.16 0l3.65-2.6A9 9 0 0 0 20 11.88V4.43a1 1 0 0 0-.37-.78zM18 11.88a6.998 6.998 0 0 1-2.93 5.7L12 19.77l-3.07-2.19A6.999 6.999 0 0 1 6 11.88v-6.3a10 10 0 0 0 6-1.39 10 10 0 0 0 6 1.39v6.3z" fill="currentColor"></path>
  </symbol>
</svg>